<svg width="12" height="13" viewBox="0 0 12 13" fill="none" xmlns="http://www.w3.org/2000/svg">
<g clip-path="url(#clip0_46_17)">
<path fill-rule="evenodd" clip-rule="evenodd" d="M5.99999 11.75C5.99999 11.75 10.2955 8.88637 10.2955 5.54546C10.2955 4.40623 9.84289 3.31367 9.03734 2.50811C8.23178 1.70256 7.13922 1.25 5.99999 1.25C4.86076 1.25 3.7682 1.70256 2.96264 2.50811C2.15708 3.31367 1.70453 4.40623 1.70453 5.54546C1.70453 8.88637 5.99999 11.75 5.99999 11.75ZM8.86363 5.06819C8.86363 6.64974 7.58153 7.93183 5.99999 7.93183C4.41844 7.93183 3.13635 6.64974 3.13635 5.06819C3.13635 3.48665 4.41844 2.20455 5.99999 2.20455C7.58153 2.20455 8.86363 3.48665 8.86363 5.06819Z" fill="#999999"/>
<path d="M5.99999 11.75L5.58396 12.3741C5.83589 12.542 6.16409 12.542 6.41601 12.3741L5.99999 11.75ZM9.03734 2.50811L8.50701 3.03844L8.50701 3.03844L9.03734 2.50811ZM2.96264 2.50811L3.49297 3.03844L2.96264 2.50811ZM9.54545 5.54546C9.54545 6.91446 8.64728 8.28274 7.60326 9.38477C7.09658 9.9196 6.58735 10.3584 6.20396 10.6637C6.01286 10.8158 5.85453 10.9336 5.74544 11.0124C5.69093 11.0518 5.64883 11.0813 5.6212 11.1005C5.60739 11.11 5.59721 11.117 5.59091 11.1213C5.58777 11.1234 5.58559 11.1249 5.58442 11.1257C5.58384 11.1261 5.5835 11.1263 5.58343 11.1263C5.58339 11.1264 5.58341 11.1263 5.5835 11.1263C5.58355 11.1263 5.58366 11.1262 5.58368 11.1262C5.58382 11.1261 5.58396 11.126 5.99999 11.75C6.41601 12.3741 6.4162 12.3739 6.41639 12.3738C6.41648 12.3737 6.41669 12.3736 6.41687 12.3735C6.41722 12.3732 6.41764 12.373 6.41812 12.3726C6.41908 12.372 6.4203 12.3712 6.42178 12.3702C6.42474 12.3682 6.42873 12.3655 6.43371 12.3621C6.44367 12.3554 6.45761 12.3458 6.47526 12.3336C6.51055 12.3092 6.56073 12.2739 6.62368 12.2285C6.7495 12.1376 6.92675 12.0056 7.13835 11.8371C7.56036 11.501 8.125 11.0151 8.69218 10.4164C9.79589 9.25137 11.0455 7.51737 11.0455 5.54546H9.54545ZM8.50701 3.03844C9.17191 3.70334 9.54545 4.60515 9.54545 5.54546H11.0455C11.0455 4.20732 10.5139 2.92399 9.56767 1.97778L8.50701 3.03844ZM5.99999 2C6.9403 2 7.84211 2.37354 8.50701 3.03844L9.56767 1.97778C8.62146 1.03157 7.33813 0.5 5.99999 0.5V2ZM3.49297 3.03844C4.15787 2.37354 5.05967 2 5.99999 2V0.5C4.66185 0.5 3.37852 1.03157 2.43231 1.97778L3.49297 3.03844ZM2.45453 5.54546C2.45453 4.60515 2.82807 3.70334 3.49297 3.03844L2.43231 1.97778C1.4861 2.92399 0.954529 4.20732 0.954529 5.54546H2.45453ZM5.99999 11.75C6.41601 11.126 6.41616 11.1261 6.41629 11.1262C6.41632 11.1262 6.41643 11.1263 6.41648 11.1263C6.41657 11.1263 6.41659 11.1264 6.41655 11.1263C6.41647 11.1263 6.41614 11.1261 6.41556 11.1257C6.41439 11.1249 6.41221 11.1234 6.40907 11.1213C6.40277 11.117 6.39259 11.11 6.37878 11.1005C6.35115 11.0813 6.30904 11.0518 6.25454 11.0124C6.14545 10.9336 5.98712 10.8158 5.79602 10.6637C5.41263 10.3584 4.9034 9.9196 4.39672 9.38477C3.3527 8.28274 2.45453 6.91446 2.45453 5.54546H0.954529C0.954529 7.51737 2.20409 9.25137 3.30779 10.4164C3.87498 11.0151 4.43962 11.501 4.86163 11.8371C5.07323 12.0056 5.25048 12.1376 5.3763 12.2285C5.43925 12.2739 5.48943 12.3092 5.52472 12.3336C5.54237 12.3458 5.55631 12.3554 5.56627 12.3621C5.57125 12.3655 5.57524 12.3682 5.5782 12.3702C5.57968 12.3712 5.5809 12.372 5.58186 12.3726C5.58234 12.373 5.58276 12.3732 5.58311 12.3735C5.58329 12.3736 5.5835 12.3737 5.58359 12.3738C5.58378 12.3739 5.58396 12.3741 5.99999 11.75ZM5.99999 8.68183C7.99575 8.68183 9.61363 7.06395 9.61363 5.06819H8.11363C8.11363 6.23553 7.16732 7.18183 5.99999 7.18183V8.68183ZM2.38635 5.06819C2.38635 7.06395 4.00423 8.68183 5.99999 8.68183V7.18183C4.83266 7.18183 3.88635 6.23553 3.88635 5.06819H2.38635ZM5.99999 1.45455C4.00423 1.45455 2.38635 3.07244 2.38635 5.06819H3.88635C3.88635 3.90086 4.83266 2.95455 5.99999 2.95455V1.45455ZM9.61363 5.06819C9.61363 3.07244 7.99575 1.45455 5.99999 1.45455V2.95455C7.16732 2.95455 8.11363 3.90086 8.11363 5.06819H9.61363Z" fill="#999999"/>
</g>
<defs>
<clipPath id="clip0_46_17">
<rect width="12" height="12" fill="white" transform="translate(0 0.5)"/>
</clipPath>
</defs>
</svg>
