<svg width="44" height="44" viewBox="0 0 44 44" fill="none" xmlns="http://www.w3.org/2000/svg">
<path fill-rule="evenodd" clip-rule="evenodd" d="M22 44C34.1503 44 44 34.1503 44 22C44 9.84974 34.1503 0 22 0C9.84974 0 0 9.84974 0 22C0 34.1503 9.84974 44 22 44ZM22 38.6667C31.2048 38.6667 38.6667 31.2048 38.6667 22C38.6667 12.7953 31.2048 5.33338 22 5.33338C12.7953 5.33338 5.33335 12.7953 5.33335 22C5.33335 31.2048 12.7953 38.6667 22 38.6667Z" fill="#999999"/>
<path fill-rule="evenodd" clip-rule="evenodd" d="M21.3003 31.4198C21.3024 29.9503 20.9856 30.1171 20.1002 29.4557C18.9779 28.6173 19.4608 28.9414 18.4391 27.936C16.5339 26.0609 17.0595 20.0857 18.3214 17.7974C19.4808 15.6949 21.4617 13.5586 23.7861 15.5202C24.2405 15.9036 24.9446 16.5801 25.2895 17.0578C26.7624 19.0977 27.371 24.8172 25.9614 27.1935C25.7406 27.5657 25.6746 27.9465 25.3718 28.2382C24.3219 29.2494 24.115 29.6163 22.7891 30.2644C22.7608 32.6751 22.7406 33.0078 22.9203 35.3897C23.8388 35.4191 24.9851 35.3108 25.8814 35.1051C26.1464 35.0443 26.6391 34.7562 26.9043 34.6213C27.9511 34.0893 29.0018 33.5605 30.0416 33.0153C30.5092 32.77 31.1038 32.0592 31.5184 31.6453C31.9573 31.207 32.5671 30.6659 32.8747 30.1431C33.022 29.8925 33.1368 29.6618 33.3034 29.4176C34.1085 28.2721 34.2016 28.2497 34.6129 26.8698C34.7332 26.4614 34.8483 26.2243 35.0167 25.8419C35.2777 25.222 35.6056 23.671 35.652 22.9828C35.6918 22.3927 35.689 21.6562 35.6717 21.0736C35.6493 20.3229 35.5779 19.95 35.384 19.2311C35.1936 18.5251 35.1258 17.781 34.8249 17.1107C34.615 16.6432 34.5602 16.5168 34.4614 16.0121C34.4045 15.7214 34.1285 15.4744 33.9732 15.2208C33.7376 14.8363 33.4714 14.37 33.2222 14.0051C33.0206 13.7101 32.6814 13.4404 32.4365 13.1352C31.0771 11.4414 29.4621 10.5002 27.6114 9.43911L27.1242 9.18621C26.892 9.10466 26.685 9.06612 26.4243 8.98437C23.058 7.93892 19.7179 8.11853 16.4423 9.3928C15.6001 9.74022 14.9315 10.3135 14.1669 10.7924C12.6966 11.7246 11.3375 13.2171 10.515 14.7441C10.0338 15.6375 9.11266 16.7978 8.95067 17.7715C8.80925 18.6214 8.58363 19.3772 8.48189 20.249C8.30172 21.7939 8.36826 23.5621 8.69173 25.0848C9.05525 26.7363 9.20874 27.3164 10.0647 28.6749C11.1655 30.422 11.3283 30.9545 13.0319 32.3116C14.4325 33.4273 15.5841 33.9776 17.1657 34.7825C17.7952 35.1027 17.6864 34.9907 18.4492 35.1657C21.8865 35.9546 21.2933 36.2004 21.3003 31.4198H21.3003Z" fill="#B67700"/>
</svg>
