<svg width="35" height="35" viewBox="0 0 35 35" fill="none" xmlns="http://www.w3.org/2000/svg">
<path fill-rule="evenodd" clip-rule="evenodd" d="M17.5 35C27.165 35 35 27.165 35 17.5C35 7.83502 27.165 0 17.5 0C7.83502 0 0 7.83502 0 17.5C0 27.165 7.83502 35 17.5 35ZM17.5 30.7576C24.822 30.7576 30.7576 24.822 30.7576 17.5C30.7576 10.178 24.822 4.24242 17.5 4.24242C10.178 4.24242 4.24243 10.178 4.24243 17.5C4.24243 24.822 10.178 30.7576 17.5 30.7576Z" fill="#999999"/>
<path fill-rule="evenodd" clip-rule="evenodd" d="M16.9434 24.9931C16.9451 23.8242 16.6931 23.9568 15.9888 23.4307C15.0961 22.7638 15.4802 23.0217 14.6675 22.2219C13.1519 20.7303 13.57 15.9773 14.5738 14.1571C15.4961 12.4847 17.0718 10.7853 18.9208 12.3457C19.2822 12.6507 19.8423 13.1888 20.1167 13.5688C21.2883 15.1914 21.7724 19.741 20.6511 21.6312C20.4755 21.9273 20.4229 22.2303 20.1821 22.4622C19.3469 23.2667 19.1823 23.5584 18.1277 24.074C18.1052 25.9916 18.0891 26.2563 18.232 28.1509C18.9627 28.1743 19.8745 28.0882 20.5875 27.9246C20.7983 27.8762 21.1902 27.647 21.4012 27.5397C22.2338 27.1165 23.0696 26.6959 23.8967 26.2622C24.2686 26.0671 24.7417 25.5017 25.0714 25.1724C25.4206 24.8238 25.9056 24.3934 26.1503 23.9775C26.2675 23.7782 26.3588 23.5946 26.4913 23.4004C27.1318 22.4892 27.2058 22.4714 27.533 21.3738C27.6287 21.0489 27.7202 20.8603 27.8542 20.5561C28.0618 20.063 28.3226 18.8292 28.3596 18.2818C28.3912 17.8125 28.3889 17.2266 28.3752 16.7631C28.3574 16.166 28.3006 15.8694 28.1464 15.2975C27.9949 14.7359 27.941 14.144 27.7016 13.6108C27.5346 13.239 27.4911 13.1384 27.4125 12.7369C27.3672 12.5057 27.1477 12.3092 27.0241 12.1075C26.8367 11.8016 26.625 11.4307 26.4267 11.1405C26.2664 10.9058 25.9966 10.6913 25.8017 10.4485C24.7204 9.10121 23.4358 8.35248 21.9636 7.50844L21.5761 7.30727C21.3913 7.2424 21.2267 7.21174 21.0194 7.14672C18.3416 6.31511 15.6847 6.45798 13.0791 7.47161C12.4091 7.74796 11.8773 8.20396 11.2691 8.58495C10.0996 9.32645 9.01842 10.5136 8.36416 11.7283C7.9814 12.4389 7.2487 13.362 7.11984 14.1365C7.00735 14.8125 6.82788 15.4137 6.74694 16.1073C6.60363 17.3361 6.65656 18.7427 6.91386 19.9539C7.20303 21.2675 7.32512 21.729 8.00604 22.8097C8.88161 24.1993 9.01116 24.623 10.3663 25.7024C11.4804 26.59 12.3964 27.0277 13.6546 27.6679C14.1552 27.9227 14.0687 27.8336 14.6755 27.9728C17.4097 28.6003 16.9378 28.7958 16.9434 24.9931H16.9434Z" fill="#B67700"/>
</svg>
