<svg width="62" height="33" viewBox="0 0 62 33" fill="none" xmlns="http://www.w3.org/2000/svg">
<g clip-path="url(#clip0_25_934)">
<path fill-rule="evenodd" clip-rule="evenodd" d="M28.2958 20.2496C27.9959 21.0468 27.3325 22.828 26.7772 23.3979C25.9037 24.2944 25.9076 24.7023 24.5621 25.8486C23.7334 26.5546 22.7106 27.1105 21.8024 27.6521C21.3156 27.9424 20.6659 28.119 20.0963 28.3184C19.5386 28.5135 18.9551 28.6003 18.1918 28.7027C17.372 28.8126 14.5794 28.9203 13.8717 28.6589L13.4514 28.4398C13.3318 28.3931 13.1338 28.3412 13.0015 28.3028C12.6321 28.1954 12.4851 28.1653 12.1692 28.0076C11.8733 27.8599 11.6712 27.8235 11.3412 27.6824C11.1385 27.5957 10.8553 27.436 10.5866 27.2963C8.44509 26.1827 5.92178 23.4363 5.14673 21.1289C4.93165 20.4886 4.717 20.09 4.57444 19.4139C3.92212 16.3207 4.13969 14.0761 5.24959 11.5506C6.11418 9.58331 7.51237 7.72477 9.39759 6.47561L10.9218 5.60715C11.4232 5.29588 11.9633 5.12866 12.5304 4.92498C13.8862 4.43812 14.68 4.2532 16.4473 4.24992C17.5658 4.25283 18.3232 4.3261 19.4202 4.54687C20.3371 4.72917 20.648 4.73758 21.5016 5.20037C23.2486 6.14756 24.2821 6.71584 25.6387 8.22499L25.6801 8.27147C26.0544 8.69763 26.4071 9.14334 26.7571 9.5894C27.0707 9.99 27.2998 10.5618 27.6128 10.8971C27.8722 10.6547 27.9453 10.2035 28.0899 9.79304L29.0046 7.61936C29.0136 7.59767 29.0243 7.57259 29.0334 7.5513L29.2607 7.1577C29.8914 6.46318 29.4774 6.31557 29.019 5.74129C28.4849 5.07205 27.6536 4.23412 26.5935 3.38401L24.5134 2.02825C23.573 1.48576 22.2589 0.920418 21.1653 0.619348C17.5824 -0.367058 12.9969 -0.238553 9.72437 1.46611C8.87071 1.91078 7.97711 2.33199 7.18829 2.84525C5.82364 3.73318 4.19645 5.24682 3.22319 6.58907C1.57624 8.86041 0.156518 12.0268 0.0442544 14.9196C-0.0629248 17.6816 -0.0288132 19.391 0.783703 21.6812C1.93969 24.9396 4.05169 28.0192 6.93945 29.9892C7.15057 30.1332 7.31629 30.2288 7.5279 30.3629C8.74869 31.1367 10.0378 31.794 11.4409 32.1799C11.624 32.2303 11.9341 32.3574 12.1402 32.4199C12.4209 32.505 12.6489 32.498 12.9641 32.572C14.101 32.8388 15.0312 32.9895 16.4473 32.9992C17.7164 33.0079 18.8845 32.9527 19.9223 32.6463C20.9211 32.3516 21.9401 32.1642 22.8919 31.7104C23.3042 31.5139 23.8275 31.3151 24.2242 31.1324C25.1298 30.7151 25.8485 30.1473 26.6208 29.6142C26.9229 29.4057 26.9014 29.4512 27.1616 29.1962C27.3468 29.0147 27.4764 28.9274 27.674 28.7611C28.2451 28.2805 28.678 27.6737 29.2056 27.1494C31.1932 25.174 32.7158 21.3662 32.9825 18.6312C33.0362 18.0802 33.1354 17.4865 33.1528 16.9161C33.1707 16.3243 33.1183 15.6129 33.1986 15.0392C33.39 13.6711 33.8982 11.8238 34.629 10.6899C35.4378 9.43491 36.0645 8.45777 37.1661 7.41871C38.543 6.11985 39.2398 6.01088 40.6721 5.20089C41.9406 4.48349 43.8738 4.25299 45.4586 4.25299C47.8416 4.25299 48.1556 4.57209 50.0292 5.05156C50.5975 5.19698 52.5446 6.35351 53.0554 6.78108C56.351 9.53968 57.895 12.6843 57.8491 17.1034C57.8196 19.9374 56.2837 23.0781 54.3183 25.0694L53.2509 26.0961C50.9734 28.0363 47.425 29.1482 44.4442 28.7908C43.7197 28.7039 43.1498 28.6327 42.4337 28.4618C41.7677 28.3029 41.503 28.2495 40.8821 27.9193C39.9566 27.4216 39.202 27.1161 38.3313 26.4763C37.5747 25.9206 36.897 25.2609 36.2332 24.6C36.1457 24.5129 35.914 24.1935 35.8213 24.0748C35.6205 23.8178 35.4198 23.5608 35.2191 23.3038C34.9292 22.9325 34.6393 22.5613 34.3494 22.1901C34.1287 23.0917 33.5645 24.2236 33.1362 25.0776C32.9465 25.4524 32.7278 25.812 32.5432 26.1796C32.2835 26.6968 32.4573 26.875 32.8462 27.2709C33.1682 27.5987 33.5061 27.9193 33.8323 28.2454C34.0822 28.4952 34.4389 28.7823 34.7133 29.0206C35.1636 29.4116 35.5883 29.8019 36.0736 30.1506C38.7632 32.0829 42.116 32.9846 45.411 32.963C46.4692 32.9541 47.6485 32.8574 48.6949 32.6995C49.6053 32.5621 50.3791 32.2541 51.2413 31.9623C52.5278 31.5287 53.9499 30.9707 55.0165 30.12C55.5569 29.6842 56.0538 29.3139 56.5521 28.8235C56.782 28.5973 57.0062 28.3658 57.2372 28.1405C57.7304 27.6615 58.1896 27.1493 58.6471 26.6367C58.976 26.2678 59.1474 25.8084 59.4248 25.3986C60.0365 24.5153 60.5692 23.5712 60.9582 22.569C62.1246 19.5357 62.2382 16.0678 61.6619 12.8598C61.3157 10.9329 60.2923 8.74891 59.1658 7.16197C58.3615 6.02892 57.3834 4.75605 56.2904 3.94298C54.8177 2.84746 54.4171 2.49416 52.5969 1.54105C52.103 1.28246 50.0818 0.586218 49.4705 0.509572C49.1106 0.464464 49.0087 0.348059 48.6971 0.284243C48.4249 0.228504 48.0911 0.23759 47.801 0.192444C44.7739 -0.278506 41.019 0.33151 38.4986 1.51591C36.2941 2.59871 35.2368 3.29001 33.6672 5.16753C33.0574 5.89693 32.4388 6.66379 31.8516 7.41165C31.3309 8.07489 30.8382 8.75498 30.4654 9.51354L30.4428 9.56019C30.015 10.4747 29.7687 11.4802 29.4642 12.4411C29.223 13.1882 29.1222 13.7841 29.0408 14.5609C28.9518 15.4198 28.9482 16.2228 28.9034 17.0765C28.8457 18.1763 28.6732 19.2113 28.2958 20.2496V20.2496Z" fill="#999999"/>
<path fill-rule="evenodd" clip-rule="evenodd" d="M15.0156 17.9157C15.3527 17.7438 15.1667 18.1508 15.2578 17.4933C15.2639 17.4494 15.2574 17.0808 15.2566 17.0079L15.548 12.5452C15.5942 11.939 15.4098 11.2561 15.8745 11.0908C16.4329 13.1655 15.8931 17.3526 16.4808 17.7154C16.4922 17.7224 16.5387 17.7516 16.5475 17.733C16.5566 17.7136 16.5944 17.7467 16.6183 17.7459C16.8714 17.48 16.7843 17.3908 16.795 16.9137L17.2721 11.1765C17.6897 11.2504 17.5398 12.1839 17.5452 12.6355C17.563 14.1395 17.786 14.423 17.8167 16.1477C17.8223 16.4669 17.8269 16.7864 17.8298 17.1055C17.8361 17.8167 17.8411 17.7858 18.0695 17.9031C18.3511 17.7807 18.2024 17.9025 18.3177 17.6066L18.4753 16.343C18.5535 15.2831 18.5291 11.7917 18.8871 11.1711C19.1408 11.9933 19.5544 18.5565 19.3145 19.5896C19.2107 20.0365 18.9264 20.8497 18.6043 21.1491C16.9602 22.6773 17.0819 22.316 17.1045 24.2302C17.1134 24.9871 17.1132 25.7412 17.1363 26.498C18.4348 26.808 20.1985 26.1825 21.0416 25.6715L23.2529 24.1614C24.4023 22.952 23.5787 24.0483 24.7575 22.5222L25.4924 21.4436C25.7071 21.0706 25.7109 21.0329 25.8807 20.5742C25.9867 20.2878 26.1159 20.0591 26.2233 19.6845C26.3241 19.3328 26.3516 19.0472 26.4702 18.6967C26.9886 17.1642 26.8204 15.5052 26.4275 13.926C25.8518 11.6128 25.4744 11.4413 24.3158 9.83798C23.9701 9.35956 22.853 8.3761 22.3813 8.05441C21.6051 7.52495 19.8406 6.82644 18.913 6.56192C17.0985 6.04453 13.9893 6.38443 12.3471 7.21935L10.6886 8.13127C10.1976 8.46607 9.75939 8.81807 9.33175 9.25541C9.08865 9.50405 8.91615 9.7367 8.71246 9.96814C8.01185 10.7642 8.04846 11.0092 7.73665 11.4786C7.53145 11.7874 7.41886 11.8471 7.24077 12.214C6.19701 14.3642 5.95399 17.4059 6.855 19.7061C6.99222 20.0564 7.08916 20.0776 7.23151 20.5474C7.52961 21.5313 7.71418 21.5615 8.20898 22.2504L9.8797 24.1257C9.89477 24.1386 9.91674 24.1559 9.9317 24.1688L10.516 24.6364C10.8927 24.9059 10.7325 24.9298 11.2087 25.1831C11.8966 25.5489 13.1926 26.1503 13.8083 26.3059C14.4874 26.4775 15.182 26.6258 15.9625 26.507L15.998 23.4699C16.0026 22.6782 15.8957 22.445 15.3593 21.9825L13.867 20.1741C13.8429 20.1003 13.7821 19.8284 13.7754 19.7998C13.4721 18.4987 13.9617 11.7153 14.1567 11.1735C14.5556 11.3228 14.3758 12.2349 14.4233 12.7252L14.7318 17.1588C14.7973 17.8775 14.7701 17.7989 15.0156 17.9157V17.9157Z" fill="#B67700"/>
<path fill-rule="evenodd" clip-rule="evenodd" d="M44.9752 23.5649C44.9768 22.4628 44.7392 22.5879 44.0752 22.0918C43.2334 21.463 43.5956 21.7061 42.8293 20.9521C41.4004 19.5457 41.7946 15.0643 42.741 13.3481C43.6106 11.7712 45.0963 10.169 46.8396 11.6402C47.1803 11.9278 47.7084 12.4351 47.9671 12.7934C49.0718 14.3233 49.5283 18.6129 48.471 20.3952C48.3055 20.6743 48.2559 20.96 48.0288 21.1787C47.2414 21.9371 47.0862 22.2122 46.0918 22.6983C46.0706 24.5064 46.0554 24.7559 46.1902 26.5423C46.8791 26.5644 47.7388 26.4831 48.4111 26.3289C48.6098 26.2833 48.9793 26.0672 49.1782 25.966C49.9633 25.567 50.7514 25.1704 51.5312 24.7615C51.8819 24.5776 52.3279 24.0444 52.6388 23.734C52.968 23.4053 53.4253 22.9995 53.656 22.6073C53.7665 22.4194 53.8526 22.2464 53.9775 22.0633C54.5814 21.2041 54.6512 21.1873 54.9596 20.1524C55.0499 19.8461 55.1362 19.6683 55.2625 19.3814C55.4583 18.9165 55.7042 17.7533 55.739 17.2371C55.7689 16.7946 55.7667 16.2422 55.7537 15.8052C55.737 15.2422 55.6834 14.9626 55.538 14.4233C55.3952 13.8939 55.3443 13.3358 55.1187 12.8331C54.9612 12.4825 54.9202 12.3877 54.846 12.0091C54.8033 11.7911 54.5964 11.6058 54.4799 11.4156C54.3032 11.1273 54.1036 10.7775 53.9166 10.5039C53.7655 10.2826 53.511 10.0803 53.3273 9.85144C52.3078 8.58113 51.0966 7.87518 49.7086 7.07938L49.3432 6.88971C49.169 6.82854 49.0137 6.79963 48.8183 6.73833C46.2935 5.95423 43.7884 6.08895 41.3317 7.04465C40.7 7.30521 40.1986 7.73515 39.6251 8.09437C38.5225 8.7935 37.5031 9.91286 36.8862 11.0581C36.5253 11.7281 35.8345 12.5984 35.713 13.3287C35.6069 13.9661 35.4377 14.5329 35.3614 15.1868C35.2263 16.3455 35.2762 17.6716 35.5188 18.8136C35.7914 20.0522 35.9065 20.4873 36.5486 21.5063C37.3741 22.8165 37.4962 23.2159 38.7739 24.2337C39.8244 25.0705 40.688 25.4833 41.8743 26.0869C42.3464 26.3271 42.2648 26.2431 42.8369 26.3744C45.4149 26.966 44.97 27.1503 44.9752 23.5649H44.9752Z" fill="#B67700"/>
</g>
<defs>
<clipPath id="clip0_25_934">
<rect width="62" height="33" fill="white"/>
</clipPath>
</defs>
</svg>
